<svg xmlns="http://www.w3.org/2000/svg" width="2000" height="1333">
  <path d="M1024.814 519.87c5.075.005 10.15.002 15.225-.004 19.701-.019 39.394.066 59.09.58l2.377.058c2.189.056 4.378.119 6.567.184l3.71.109c2.848.18 5.433.618 8.217 1.203 1.482.102 2.968.164 4.454.19l2.589.05 2.777.041 2.92.055c2.06.039 4.122.075 6.182.11 5.36.09 10.719.195 16.078.3l3.184.062c8.924.18 17.839.466 26.754.887 6.099.268 12.182.324 18.285.309 13.269-.033 26.534.129 39.802.313 2.838.04 5.677.074 8.516.105 16.562.18 33.032.697 49.559 1.821 14.542.976 29.082 1.406 43.65 1.82 30.02.874 30.02.874 41.89 1.433l2.438.108c3.446.175 6.59.549 9.922 1.396 2.282.203 4.568.365 6.855.5l2.004.123c2.11.13 4.219.254 6.329.377 22.454 1.331 22.454 1.331 28.351 3.004 6.018 1.597 12.29 1.561 18.479 1.83 4.102.18 8.202.388 12.302.596l2.61.131c11.851.613 23.683 1.51 35.517 2.386 18.567 1.373 37.05 2.258 55.668 2.605 2.708.052 5.416.11 8.123.167l2.494.04c3.584.08 6.812.323 10.268 1.241 14.163 1.702 28.498 2.198 42.75 2.25l3.691.028c6.742-.024 12.277-.58 18.598-3.087 6.122-2.287 11.231-2.426 17.711-1.941l2.92.18c1.91.12 3.818.248 5.726.385 2.238.159 4.474.295 6.713.415 5.385.33 9.773 1.02 14.891 2.77 1.435.209 2.872.397 4.313.562 10.388 1.945 23.384 9.135 30.875 16.625 3.796 5.891 5.096 12.142 5.601 19.063.031 1.776.031 1.776 1.211 2.75.282 3.7.232 7.415.25 11.125l.063 3.133c.03 6.053-.431 10.388-3.313 15.742h-2l-1 4h2c2.27 3.969 4.154 7.52 4.563 12.125.209 3.889.209 3.889 2.062 7.062 1.664 3.403 1.166 4.21.375 7.813a475.69 475.69 0 0 0-.312 6.937c-.37 5.707-.9 8.815-4.688 13.063l-2 3-3 2 2.563.297c6.968.918 12.37 2.134 18.437 5.703v2l1.875.375C1761 679 1761 679 1763 681v3h2c1.498 3.371 2 5.204 2 9h2l1 6h1c1.195 7.92 2.388 17.24 0 25-2.062 1.375-2.062 1.375-4 2v2h-2v2h-2c-.917 2.75-1.109 4.36-1.062 7.187L1762 741h1v17h-1l-1 7h-2v3h-2v2h-2l-1 3c-2.469.914-2.469.914-5.5 1.625-3.55.606-3.55.606-6.5 2.375-5.829 1.09-11.61 1.212-17.527 1.316l-2.997.063c-3.138.065-6.276.125-9.413.183l-6.409.131c-5.218.107-10.436.209-15.654.307l-1 3h-2l2 3v3l2.746.113c6.463.35 12.166.858 18.215 3.192 3.284 1.12 6.6 1.326 10.039 1.695l1 1c3.3.66 6.605 1.243 9.922 1.807 6.148 1.09 10.332 1.914 14.078 7.193l3 1c1.886 3.213 3 5.246 3 9h2l.621 2.152.817 2.785.808 2.778c.544 2.225.544 2.225 1.754 3.285l1 7 1 1c.46 5.67.232 10.7-2 16h-2v3c-19.355 10.223-37.94 10.348-59.437 10.25l-3.68-.01c-40.987-.12-81.815-1.723-122.645-5.338l-2.63-.23-2.431-.223-2.092-.19c-2.085-.259-2.085-.259-4.516-.765-2.643-.508-5.165-.717-7.852-.851l-3.13-.162-3.368-.165-7.184-.373c-3.742-.19-7.484-.378-11.227-.565-12.043-.608-24.055-1.22-36.05-2.472-8.113-.838-16.083-1.123-24.234-1-3.939.058-7.878.073-11.817.09l-2.568.012c-9.942.027-19.878-.21-29.817-.434-16.881-.382-33.748-.637-50.634-.574-33.523.115-67.044-.453-100.561-.968l-6.058-.09c-6.451-.097-12.902-.202-19.353-.328a1665.08 1665.08 0 0 0-5.318-.093c-8.928-.145-17.557-.721-26.396-2.127-3.946-.518-7.358-.314-11.314.106-6.811.604-13.082.152-19.837-.804-5.228-.713-9.677-.637-14.851.304v2c-15.667.176-31.333.342-47 .5l-3.6.036c-34.142.344-68.28.525-102.424.469-29.2-.047-58.394-.022-87.59.342-2.258.027-4.516.052-6.773.075-14.512.154-28.965.53-43.449 1.52-24.578 1.656-49.223 1.96-73.845 2.528-6.664.154-13.329.314-19.993.473l-3.939.095-11.586.278-3.785.091c-21.238.51-21.238.51-42.473 1.12l-3.547.103-3.128.104-2.601.083c-2.201.178-4.134.633-6.267 1.183-1.42.152-2.843.27-4.268.357l-2.533.162-2.73.165-2.866.183c-4.029.257-8.058.506-12.088.755-11.214.7-22.393 1.5-33.568 2.67-8.284.863-16.577 1.446-24.886 2.007l-3.37.236-2.962.2c-2.684.209-2.684.209-5.1.772-3.454.648-6.884.746-10.387.845l-2.253.07c-1.572.047-3.144.092-4.716.136-2.37.066-4.74.144-7.109.223-8.133.247-16.072.275-24.164-.781v-2l-4 1-1-2c-4.75-2.667-10.032-2.51-15.34-2.781l-3.03-.18a2542.61 2542.61 0 0 0-9.567-.539c-4.198-.23-8.394-.471-12.59-.719l-2.908-.148c-4.858-.287-8.997-.808-13.565-2.633l-3.375-1.125L493 851v-2l-6-1v-2h-2v-2l-3.902-.367-5.035-.508-2.577-.238-2.45-.254-2.27-.222L467 842l-1-2a134.078 134.078 0 0 0-6-3 350.575 350.575 0 0 1-.125-4.813l-.07-2.707C460 827 460 827 462 824l-5-1v-2l-4-2v-2l-14-1-1-4c-2.996-1.305-2.996-1.305-6-2v-2a942667727.132 942667727.132 0 0 1-6.152-1.563c-1.694-.475-1.694-.475-2.848-.437h-2v2l-5 1-.812 3.375C414 816 414 816 411 818c-2.488-.164-2.488-.164-5.312-.625-4.625-.612-4.625-.612-8.688 1.625-4.536 3.024-8.804 1.993-14 1l-2-1v-2h-7l-.75 1.937C372 821 372 821 370.395 821.617c-3.32.53-6.606.574-9.957.57l-2.137.002c-5.915-.059-11.54-.822-17.301-2.189v-2l-3 1a478.951 478.951 0 0 1-1.5-4.25l-.844-2.39C335 810 335 810 335 806h-2v-2c-8.845-2.948-15.63-2.067-24.559.246-7.76 1.7-15.518 1.96-23.441 2.004l-2.828.062c-6.267.036-11.37-.937-17.172-3.312v-2h-2c-3.59-6.726-5.454-15.432-4-23a99.185 99.185 0 0 1 5-3c.765-2.984.93-5.927 1-9h-3v-2h-5v-2l-6-2v-2h-2v-2h-2v-2l-4-1v-3h-2v-2h-2c-2.152-3.228-2.2-4.284-2-8h-2v-14c11.75-3 11.75-3 14-3v-3l2.809-.621 3.629-.817 3.62-.808c2.812-.455 2.812-.455 3.942-1.754a153.29 153.29 0 0 1 6.195-.684l3.86-.373c2.027-.19 4.054-.379 6.082-.565 1.957-.182 3.914-.372 5.87-.562l3.552-.33c3.616-.51 6.945-1.444 10.441-2.486 2.854-.295 5.681-.435 8.547-.559 2.898-.521 3.458-1.388 5.453-3.441 3.65-.946 7.2-1.182 10.957-1.316l3.37-.127 3.486-.12 3.544-.13c2.881-.106 5.762-.208 8.643-.307-.776.01-1.552.02-2.352.032-3.549.042-7.098.067-10.648.093-1.22.017-2.441.034-3.7.05-7.933.044-15.256-.066-22.3-4.175v2h-2l-1 6-12-1-1-3c-2.015-.733-2.015-.733-4-1v-2h-2v-2l-6-2v-2l-7-1-1-3a557.204 557.204 0 0 0-5.187-.563l-2.918-.316c-2.87-.12-5.145.063-7.895.879l-1 2c-2.46.239-4.847.37-7.312.437-7.927.357-16.367.85-23.239 5.165-3.393 1.937-5.532 1.61-9.289 1.046-3.39-1.017-5.096-2.852-7.16-5.648v-3l-7-2c.117-6.909.117-6.909 2.273-9.574 4.764-3.724 9.859-4.62 15.727-5.426l3.684-.523c2.468-.35 4.938-.687 7.41-1.012 2.835-.304 2.835-.304 4.906-1.465a258.86 258.86 0 0 1 8.125-.5c11.876-.056 11.876-.056 21.875-5.5 3.812-3.403 8.189-4.57 13-6l3.297-1.05c3.94-1.01 7.583-1.36 11.64-1.575l2.073-.117c1.663-.093 3.326-.177 4.99-.258v-2c5.05-1.036 9.874-1.103 15-1l-2-1c-.598-2.18-.598-2.18-1.062-4.875-.5-2.836-1.025-5.386-1.938-8.125a82.752 82.752 0 0 1-.125-4.938l-.008-2.59c.124-2.299.489-4.268 1.133-6.472h2l1-3a68.54 68.54 0 0 1 7.125-2c5.245-1.223 9.914-2.837 14.875-5 5.29-1.452 10.502-2.29 16-2v-2l1.845-.136c17.047-.825 17.047-.825 33.155-5.864l-1-6-4-1v-1l-17-1-1-5h-2v-12h2v-7h2v-3c3.087-1.745 5.752-2.385 9.25-2.875 4.454-.748 7.974-1.912 11.898-4.125 4.901-2.647 9.272-3.355 14.793-3.563l2.314-.111c2.436-.117 4.871-.223 7.308-.326 2.41-.104 4.821-.21 7.232-.326a470.78 470.78 0 0 1 4.485-.194c4.229-.2 8.288-.72 12.457-1.466 6.444-1.123 12.82-1.514 19.349-1.795l3.691-.18c3.866-.186 7.732-.363 11.598-.539 14.827-.684 29.615-1.389 44.39-2.827 6.682-.646 13.335-1.01 20.048-1.173 9.041-.286 18.044-.78 27.062-1.5l3.206-.252c4.928-.328 4.928-.328 9.76-1.248 3.18-.737 6.387-.833 9.636-1l2.197-.123c2.317-.13 4.634-.254 6.951-.377 15.145.268 15.145.268 29.375-3a205.52 205.52 0 0 1 7.176-.684l2.185-.183c3.08-.258 6.16-.507 9.242-.755 8.416-.685 16.711-1.521 25.05-2.89 6.789-.99 13.637-1.479 20.472-2.05 2.236-.188 4.472-.378 6.707-.571 2.001-.174 4.003-.342 6.004-.51 3.184-.248 3.184-.248 6.164-1.357 2.299-.208 4.602-.367 6.906-.5l2.06-.123c2.178-.13 4.356-.254 6.534-.377 15.233.241 15.233.241 29.5-3 2.705-.355 5.4-.663 8.113-.938l2.444-.257c2.585-.272 5.17-.539 7.756-.805 2.574-.267 5.148-.534 7.722-.805 1.603-.168 3.206-.334 4.809-.497 2.892-.303 5.747-.613 8.596-1.204 2.51-.484 4.905-.719 7.455-.867l2.862-.172 3.056-.174 3.17-.19c4.469-.268 8.938-.528 13.407-.789 3.266-.191 6.532-.387 9.798-.583l3.055-.174 2.862-.172 2.505-.146c2.426-.188 2.426-.188 4.919-.742 2.373-.466 4.493-.612 6.907-.614l2.558-.01 2.725.006 2.835-.003c1.973 0 3.947.001 5.92.006 3.015.005 6.03 0 9.046-.007 1.92 0 3.84.002 5.761.004l2.725-.006 2.558.01 2.236.002c2.2.127 2.2.127 4.578.627 3.055.583 5.906.627 9.017.63l3.852.009 4.136-.006 4.262.003c2.97.001 5.94 0 8.911-.006 3.808-.005 7.615-.002 11.423.004 2.93.004 5.86.002 8.791 0 1.405 0 2.809 0 4.213.002 1.96.003 3.92-.002 5.88-.007l3.38-.002c2.847-.006 2.847-.006 5.757-1.127 3.761-.35 7.542-.426 11.316-.555l3.69-.127c17.595-.557 35.205-.468 52.808-.448ZM369 701v1a324.539 324.539 0 0 0 30-1v-1c-10.064-.118-19.966.122-30 1Z"/>
  <path d="M440 696v1c-3.832.508-7.666 1.005-11.5 1.5l-3.266.434c-5.789.74-11.396 1.344-17.234 1.066l-1-1a123.141 123.141 0 0 0-5.563-.563l-3.066-.253L396 698v-1a59.227 59.227 0 0 1 11.992-1.063l3.387.024 6.969.078c6.496.045 15.628-2.298 21.652-.039Z" fill="#121212"/>
  <path d="M1697 776v1h-5v2h-2l-1 3h-2l1.5 2.875C1690 788 1690 788 1690 790c-2.375-.313-2.375-.313-5-1-2.33-3.496-2.588-4.887-2-9 3.945-4.835 8.245-4.451 14-4Z" fill="#0F0F0F"/>
  <path d="M351 702v1l-3.438.438c-3.37.174-3.37.174-4.562 1.562a90.91 90.91 0 0 1-5.129.098l-3.135-.01-3.298-.025-3.311-.014c-2.71-.012-5.418-.028-8.127-.049 3-2 3.746-2.267 7.133-2.414l2.445-.117 2.547-.094 2.477-.117c5.47-.243 10.923-.291 16.398-.258Z" fill="#151515"/>
  <path d="M396 697c3.583-.058 7.166-.094 10.75-.125l3.078-.05 2.969-.02 2.73-.032c2.612.24 4.23.904 6.473 2.227-2.124.194-4.25.38-6.375.563l-3.586.316C409 700 409 700 407 699a141.25 141.25 0 0 0-5.625-.563l-3.04-.253L396 698v-1Z" fill="#222"/>
  <path d="m1758 732 3 1v15l-2-1 .125-3.375c.286-3.669.286-3.669-2.125-5.625-.188-2.563-.188-2.563 0-5l1-1Z" fill="#151515"/>
  <path d="M238 686c3.424 1.215 5.012 3.018 7 6-3.375.125-3.375.125-7 0l-2-2v-3l2-1Z" fill="#303030"/>
  <path d="M1759 756h1c.143 8.571.143 8.571-1 12h-2v2h-2l-1 2-2-2 2.375-2.5c3.037-3.596 3.757-6.923 4.625-11.5Z" fill="#131313"/>
  <path d="M551 855c2.25-.313 2.25-.313 5 0 2.313 2.5 2.313 2.5 4 5h-2l-1 2-1-2a134.078 134.078 0 0 0-6-3l1-2Z" fill="#101010"/>
  <path d="M205 692c2.468 1.152 4.048 2.048 6 4 3.083.167 3.083.167 6 0v2c-3.853.831-6.232 1.31-9.938-.188L205 696v-4Z" fill="#202020"/>
  <path d="M480 841c5.63.402 8.004 2.29 12 6l-4 1-1-2h-2v-2l-5-1v-2Z" fill="#090909"/>
  <path d="M224 691c2.962.613 4.38 1.254 7 3l-2 2c-3.625-.375-3.625-.375-7-1l2-4Z" fill="#333"/>
  <path d="m1616 846 3 2-1 8h-2a597.53 597.53 0 0 1-.563-4.438l-.316-2.496L1615 847l1-1Z" fill="#D0D0D0"/>
  <path d="M392 698a762.12 762.12 0 0 1 7.25-.125l2.066-.05c3.745-.037 6.508.096 9.684 2.175-1 1-1 1-4.063 1.063L404 701v-1l-12-1v-1Z" fill="#111"/>
  <path d="M1736 613h1v5h2c2.152 3.228 2.2 4.284 2 8-2.12-2.615-4.13-5.196-6-8 .375-2.688.375-2.688 1-5Z" fill="#0D0D0D"/>
  <path d="m449 812 7 1 1 3h-6l-2-4Z" fill="#1A1A1A"/>
  <path d="M206 680a105.022 105.022 0 0 1-4 5h-2l-1 2c.256-2.343.593-4.678 1-7 2.49-1.245 3.41-.777 6 0Zm182.25-73.125L390 608v2h-12l4-2 2-1.25c2-.75 2-.75 4.25.125Z" fill="#2C2C2C"/>
  <path d="M250 722v3c-3.435 2.29-4.985 2.178-9 2 2.53-3.092 5.225-3.91 9-5Z" fill="#121212"/>
  <path d="M370 588c2.5 2.174 3.436 3.73 4 7l-5-1a99.984 99.984 0 0 1 0-5l1-1Z" fill="#3C3C3C"/>
  <path d="M275 693c3.367 1.393 4.986 2.979 7 6h-5l-2-6Z" fill="#161616"/>
</svg>
